# xmcd
#
# Track frame offsets: 
#        200
#        20482
#        32927
#        62825
#        84270
#        105617
#        124175
#        141475
#        167405
#        199760
#
# Disc length: 2747 seconds
#
# Revision: 2
# Processed by: cddbd v1.5.2PL0 Copyright (c) Steve Scherf et al.
# Submitted via: ExactAudioCopyFreeDBPlugin 1.0
#
DISCID=860ab90a
DTITLE=Larry McCray and The Bluegills - Meet Me At The Lake
DYEAR=1996
DGENRE=Blues
TTITLE0=Too Much Rooster
TTITLE1=More Walk, Less Talk
TTITLE2=In A Funk In A Phone Booth
TTITLE3=Hell To Pay
TTITLE4=Look Around
TTITLE5=No Letter
TTITLE6=Havoc
TTITLE7=Never Let It Happen Again
TTITLE8=The Moon Is Full
TTITLE9=Spend It
EXTD=
EXTT0=
EXTT1=
EXTT2=
EXTT3=
EXTT4=
EXTT5=
EXTT6=
EXTT7=
EXTT8=
EXTT9=
PLAYORDER=
